<svg width="300" height="100" viewBox="0 0 300 100" fill="none" xmlns="http://www.w3.org/2000/svg">
<rect width="300" height="100" rx="10" fill="white"/>
<rect x="20" y="23" width="59" height="53" rx="8" fill="#00FAAF" fill-opacity="0.63"/>
<path d="M59 50C59.6566 50 60.3068 49.8707 60.9134 49.6194C61.52 49.3681 62.0712 48.9998 62.5355 48.5355C62.9998 48.0712 63.3681 47.52 63.6194 46.9134C63.8707 46.3068 64 45.6566 64 45C64 43.6739 63.4732 42.4021 62.5355 41.4645C61.5979 40.5268 60.3261 40 59 40C57.6739 40 56.4021 40.5268 55.4645 41.4645C54.5268 42.4021 54 43.6739 54 45C54 45.6566 54.1293 46.3068 54.3806 46.9134C54.6319 47.52 55.0002 48.0712 55.4645 48.5355C56.4021 49.4732 57.6739 50 59 50ZM44 48C45.5913 48 47.1174 47.3679 48.2426 46.2426C49.3679 45.1174 50 43.5913 50 42C50 40.4087 49.3679 38.8826 48.2426 37.7574C47.1174 36.6321 45.5913 36 44 36C42.4087 36 40.8826 36.6321 39.7574 37.7574C38.6321 38.8826 38 40.4087 38 42C38 43.5913 38.6321 45.1174 39.7574 46.2426C40.8826 47.3679 42.4087 48 44 48ZM59 54C55.34 54 48 55.84 48 59.5V64H70V59.5C70 55.84 62.66 54 59 54ZM44 52C39.34 52 30 54.34 30 59V64H44V59.5C44 57.8 44.66 54.82 48.74 52.56C47 52.2 45.32 52 44 52Z" fill="#383838"/>
<path d="M100.648 32.2V29.878H104.986V43H102.394V32.2H100.648ZM107.475 36.268C107.475 34.192 107.847 32.566 108.591 31.39C109.347 30.214 110.595 29.626 112.335 29.626C114.075 29.626 115.317 30.214 116.061 31.39C116.817 32.566 117.195 34.192 117.195 36.268C117.195 38.356 116.817 39.994 116.061 41.182C115.317 42.37 114.075 42.964 112.335 42.964C110.595 42.964 109.347 42.37 108.591 41.182C107.847 39.994 107.475 38.356 107.475 36.268ZM114.711 36.268C114.711 35.38 114.651 34.636 114.531 34.036C114.423 33.424 114.195 32.926 113.847 32.542C113.511 32.158 113.007 31.966 112.335 31.966C111.663 31.966 111.153 32.158 110.805 32.542C110.469 32.926 110.241 33.424 110.121 34.036C110.013 34.636 109.959 35.38 109.959 36.268C109.959 37.18 110.013 37.948 110.121 38.572C110.229 39.184 110.457 39.682 110.805 40.066C111.153 40.438 111.663 40.624 112.335 40.624C113.007 40.624 113.517 40.438 113.865 40.066C114.213 39.682 114.441 39.184 114.549 38.572C114.657 37.948 114.711 37.18 114.711 36.268ZM123.077 36.7C123.077 35.464 123.353 34.36 123.905 33.388C124.469 32.404 125.231 31.642 126.191 31.102C127.163 30.55 128.249 30.274 129.449 30.274C130.853 30.274 132.083 30.634 133.139 31.354C134.195 32.074 134.933 33.07 135.353 34.342H132.455C132.167 33.742 131.759 33.292 131.231 32.992C130.715 32.692 130.115 32.542 129.431 32.542C128.699 32.542 128.045 32.716 127.469 33.064C126.905 33.4 126.461 33.88 126.137 34.504C125.825 35.128 125.669 35.86 125.669 36.7C125.669 37.528 125.825 38.26 126.137 38.896C126.461 39.52 126.905 40.006 127.469 40.354C128.045 40.69 128.699 40.858 129.431 40.858C130.115 40.858 130.715 40.708 131.231 40.408C131.759 40.096 132.167 39.64 132.455 39.04H135.353C134.933 40.324 134.195 41.326 133.139 42.046C132.095 42.754 130.865 43.108 129.449 43.108C128.249 43.108 127.163 42.838 126.191 42.298C125.231 41.746 124.469 40.984 123.905 40.012C123.353 39.04 123.077 37.936 123.077 36.7ZM140.026 29.68V43H137.506V29.68H140.026ZM143.793 31.84C143.349 31.84 142.977 31.702 142.677 31.426C142.389 31.138 142.245 30.784 142.245 30.364C142.245 29.944 142.389 29.596 142.677 29.32C142.977 29.032 143.349 28.888 143.793 28.888C144.237 28.888 144.603 29.032 144.891 29.32C145.191 29.596 145.341 29.944 145.341 30.364C145.341 30.784 145.191 31.138 144.891 31.426C144.603 31.702 144.237 31.84 143.793 31.84ZM145.035 33.028V43H142.515V33.028H145.035ZM156.795 37.798C156.795 38.158 156.771 38.482 156.723 38.77H149.433C149.493 39.49 149.745 40.054 150.189 40.462C150.633 40.87 151.179 41.074 151.827 41.074C152.763 41.074 153.429 40.672 153.825 39.868H156.543C156.255 40.828 155.703 41.62 154.887 42.244C154.071 42.856 153.069 43.162 151.881 43.162C150.921 43.162 150.057 42.952 149.289 42.532C148.533 42.1 147.939 41.494 147.507 40.714C147.087 39.934 146.877 39.034 146.877 38.014C146.877 36.982 147.087 36.076 147.507 35.296C147.927 34.516 148.515 33.916 149.271 33.496C150.027 33.076 150.897 32.866 151.881 32.866C152.829 32.866 153.675 33.07 154.419 33.478C155.175 33.886 155.757 34.468 156.165 35.224C156.585 35.968 156.795 36.826 156.795 37.798ZM154.185 37.078C154.173 36.43 153.939 35.914 153.483 35.53C153.027 35.134 152.469 34.936 151.809 34.936C151.185 34.936 150.657 35.128 150.225 35.512C149.805 35.884 149.547 36.406 149.451 37.078H154.185ZM164.161 32.884C165.349 32.884 166.309 33.262 167.041 34.018C167.773 34.762 168.139 35.806 168.139 37.15V43H165.619V37.492C165.619 36.7 165.421 36.094 165.025 35.674C164.629 35.242 164.089 35.026 163.405 35.026C162.709 35.026 162.157 35.242 161.749 35.674C161.353 36.094 161.155 36.7 161.155 37.492V43H158.635V33.028H161.155V34.27C161.491 33.838 161.917 33.502 162.433 33.262C162.961 33.01 163.537 32.884 164.161 32.884ZM173.469 35.098V39.922C173.469 40.258 173.547 40.504 173.703 40.66C173.871 40.804 174.147 40.876 174.531 40.876H175.701V43H174.117C171.993 43 170.931 41.968 170.931 39.904V35.098H169.743V33.028H170.931V30.562H173.469V33.028H175.701V35.098H173.469Z" fill="#636363"/>
<path d="M107.074 70.126C105.898 70.126 104.818 69.85 103.834 69.298C102.85 68.746 102.07 67.984 101.494 67.012C100.918 66.028 100.63 64.918 100.63 63.682C100.63 62.458 100.918 61.36 101.494 60.388C102.07 59.404 102.85 58.636 103.834 58.084C104.818 57.532 105.898 57.256 107.074 57.256C108.262 57.256 109.342 57.532 110.314 58.084C111.298 58.636 112.072 59.404 112.636 60.388C113.212 61.36 113.5 62.458 113.5 63.682C113.5 64.918 113.212 66.028 112.636 67.012C112.072 67.984 111.298 68.746 110.314 69.298C109.33 69.85 108.25 70.126 107.074 70.126ZM107.074 67.876C107.83 67.876 108.496 67.708 109.072 67.372C109.648 67.024 110.098 66.532 110.422 65.896C110.746 65.26 110.908 64.522 110.908 63.682C110.908 62.842 110.746 62.11 110.422 61.486C110.098 60.85 109.648 60.364 109.072 60.028C108.496 59.692 107.83 59.524 107.074 59.524C106.318 59.524 105.646 59.692 105.058 60.028C104.482 60.364 104.032 60.85 103.708 61.486C103.384 62.11 103.222 62.842 103.222 63.682C103.222 64.522 103.384 65.26 103.708 65.896C104.032 66.532 104.482 67.024 105.058 67.372C105.646 67.708 106.318 67.876 107.074 67.876ZM119.947 62.098H118.201V70H115.645V62.098H114.511V60.028H115.645V59.524C115.645 58.3 115.993 57.4 116.689 56.824C117.385 56.248 118.435 55.978 119.839 56.014V58.138C119.227 58.126 118.801 58.228 118.561 58.444C118.321 58.66 118.201 59.05 118.201 59.614V60.028H119.947V62.098ZM126.152 62.098H124.406V70H121.85V62.098H120.716V60.028H121.85V59.524C121.85 58.3 122.198 57.4 122.894 56.824C123.59 56.248 124.64 55.978 126.044 56.014V58.138C125.432 58.126 125.006 58.228 124.766 58.444C124.526 58.66 124.406 59.05 124.406 59.614V60.028H126.152V62.098ZM129.063 58.84C128.619 58.84 128.247 58.702 127.947 58.426C127.659 58.138 127.515 57.784 127.515 57.364C127.515 56.944 127.659 56.596 127.947 56.32C128.247 56.032 128.619 55.888 129.063 55.888C129.507 55.888 129.873 56.032 130.161 56.32C130.461 56.596 130.611 56.944 130.611 57.364C130.611 57.784 130.461 58.138 130.161 58.426C129.873 58.702 129.507 58.84 129.063 58.84ZM130.305 60.028V70H127.785V60.028H130.305ZM132.147 65.014C132.147 63.982 132.357 63.082 132.777 62.314C133.197 61.534 133.779 60.934 134.523 60.514C135.267 60.082 136.119 59.866 137.079 59.866C138.315 59.866 139.335 60.178 140.139 60.802C140.955 61.414 141.501 62.278 141.777 63.394H139.059C138.915 62.962 138.669 62.626 138.321 62.386C137.985 62.134 137.565 62.008 137.061 62.008C136.341 62.008 135.771 62.272 135.351 62.8C134.931 63.316 134.721 64.054 134.721 65.014C134.721 65.962 134.931 66.7 135.351 67.228C135.771 67.744 136.341 68.002 137.061 68.002C138.081 68.002 138.747 67.546 139.059 66.634H141.777C141.501 67.714 140.955 68.572 140.139 69.208C139.323 69.844 138.303 70.162 137.079 70.162C136.119 70.162 135.267 69.952 134.523 69.532C133.779 69.1 133.197 68.5 132.777 67.732C132.357 66.952 132.147 66.046 132.147 65.014ZM144.901 58.84C144.457 58.84 144.085 58.702 143.785 58.426C143.497 58.138 143.353 57.784 143.353 57.364C143.353 56.944 143.497 56.596 143.785 56.32C144.085 56.032 144.457 55.888 144.901 55.888C145.345 55.888 145.711 56.032 145.999 56.32C146.299 56.596 146.449 56.944 146.449 57.364C146.449 57.784 146.299 58.138 145.999 58.426C145.711 58.702 145.345 58.84 144.901 58.84ZM146.143 60.028V70H143.623V60.028H146.143ZM147.985 64.978C147.985 63.97 148.183 63.076 148.579 62.296C148.987 61.516 149.533 60.916 150.217 60.496C150.913 60.076 151.687 59.866 152.539 59.866C153.283 59.866 153.931 60.016 154.483 60.316C155.047 60.616 155.497 60.994 155.833 61.45V60.028H158.371V70H155.833V68.542C155.509 69.01 155.059 69.4 154.483 69.712C153.919 70.012 153.265 70.162 152.521 70.162C151.681 70.162 150.913 69.946 150.217 69.514C149.533 69.082 148.987 68.476 148.579 67.696C148.183 66.904 147.985 65.998 147.985 64.978ZM155.833 65.014C155.833 64.402 155.713 63.88 155.473 63.448C155.233 63.004 154.909 62.668 154.501 62.44C154.093 62.2 153.655 62.08 153.187 62.08C152.719 62.08 152.287 62.194 151.891 62.422C151.495 62.65 151.171 62.986 150.919 63.43C150.679 63.862 150.559 64.378 150.559 64.978C150.559 65.578 150.679 66.106 150.919 66.562C151.171 67.006 151.495 67.348 151.891 67.588C152.299 67.828 152.731 67.948 153.187 67.948C153.655 67.948 154.093 67.834 154.501 67.606C154.909 67.366 155.233 67.03 155.473 66.598C155.713 66.154 155.833 65.626 155.833 65.014ZM163.352 56.68V70H160.832V56.68H163.352ZM179.293 61.324C179.293 61.996 179.131 62.626 178.807 63.214C178.495 63.802 177.997 64.276 177.313 64.636C176.641 64.996 175.789 65.176 174.757 65.176H172.651V70H170.131V57.436H174.757C175.729 57.436 176.557 57.604 177.241 57.94C177.925 58.276 178.435 58.738 178.771 59.326C179.119 59.914 179.293 60.58 179.293 61.324ZM174.649 63.142C175.345 63.142 175.861 62.986 176.197 62.674C176.533 62.35 176.701 61.9 176.701 61.324C176.701 60.1 176.017 59.488 174.649 59.488H172.651V63.142H174.649ZM180.434 64.978C180.434 63.97 180.632 63.076 181.028 62.296C181.436 61.516 181.982 60.916 182.666 60.496C183.362 60.076 184.136 59.866 184.988 59.866C185.732 59.866 186.38 60.016 186.932 60.316C187.496 60.616 187.946 60.994 188.282 61.45V60.028H190.82V70H188.282V68.542C187.958 69.01 187.508 69.4 186.932 69.712C186.368 70.012 185.714 70.162 184.97 70.162C184.13 70.162 183.362 69.946 182.666 69.514C181.982 69.082 181.436 68.476 181.028 67.696C180.632 66.904 180.434 65.998 180.434 64.978ZM188.282 65.014C188.282 64.402 188.162 63.88 187.922 63.448C187.682 63.004 187.358 62.668 186.95 62.44C186.542 62.2 186.104 62.08 185.636 62.08C185.168 62.08 184.736 62.194 184.34 62.422C183.944 62.65 183.62 62.986 183.368 63.43C183.128 63.862 183.008 64.378 183.008 64.978C183.008 65.578 183.128 66.106 183.368 66.562C183.62 67.006 183.944 67.348 184.34 67.588C184.748 67.828 185.18 67.948 185.636 67.948C186.104 67.948 186.542 67.834 186.95 67.606C187.358 67.366 187.682 67.03 187.922 66.598C188.162 66.154 188.282 65.626 188.282 65.014ZM195.801 61.576C196.125 61.048 196.545 60.634 197.061 60.334C197.589 60.034 198.189 59.884 198.861 59.884V62.53H198.195C197.403 62.53 196.803 62.716 196.395 63.088C195.999 63.46 195.801 64.108 195.801 65.032V70H193.281V60.028H195.801V61.576ZM203.492 62.098V66.922C203.492 67.258 203.57 67.504 203.726 67.66C203.894 67.804 204.17 67.876 204.554 67.876H205.724V70H204.14C202.016 70 200.954 68.968 200.954 66.904V62.098H199.766V60.028H200.954V57.562H203.492V60.028H205.724V62.098H203.492ZM213.063 59.884C214.251 59.884 215.211 60.262 215.943 61.018C216.675 61.762 217.041 62.806 217.041 64.15V70H214.521V64.492C214.521 63.7 214.323 63.094 213.927 62.674C213.531 62.242 212.991 62.026 212.307 62.026C211.611 62.026 211.059 62.242 210.651 62.674C210.255 63.094 210.057 63.7 210.057 64.492V70H207.537V60.028H210.057V61.27C210.393 60.838 210.819 60.502 211.335 60.262C211.863 60.01 212.439 59.884 213.063 59.884ZM228.707 64.798C228.707 65.158 228.683 65.482 228.635 65.77H221.345C221.405 66.49 221.657 67.054 222.101 67.462C222.545 67.87 223.091 68.074 223.739 68.074C224.675 68.074 225.341 67.672 225.737 66.868H228.455C228.167 67.828 227.615 68.62 226.799 69.244C225.983 69.856 224.981 70.162 223.793 70.162C222.833 70.162 221.969 69.952 221.201 69.532C220.445 69.1 219.851 68.494 219.419 67.714C218.999 66.934 218.789 66.034 218.789 65.014C218.789 63.982 218.999 63.076 219.419 62.296C219.839 61.516 220.427 60.916 221.183 60.496C221.939 60.076 222.809 59.866 223.793 59.866C224.741 59.866 225.587 60.07 226.331 60.478C227.087 60.886 227.669 61.468 228.077 62.224C228.497 62.968 228.707 63.826 228.707 64.798ZM226.097 64.078C226.085 63.43 225.851 62.914 225.395 62.53C224.939 62.134 224.381 61.936 223.721 61.936C223.097 61.936 222.569 62.128 222.137 62.512C221.717 62.884 221.459 63.406 221.363 64.078H226.097ZM233.067 61.576C233.391 61.048 233.811 60.634 234.327 60.334C234.855 60.034 235.455 59.884 236.127 59.884V62.53H235.461C234.669 62.53 234.069 62.716 233.661 63.088C233.265 63.46 233.067 64.108 233.067 65.032V70H230.547V60.028H233.067V61.576ZM241.64 70.162C240.824 70.162 240.092 70.018 239.444 69.73C238.796 69.43 238.28 69.028 237.896 68.524C237.524 68.02 237.32 67.462 237.284 66.85H239.822C239.87 67.234 240.056 67.552 240.38 67.804C240.716 68.056 241.13 68.182 241.622 68.182C242.102 68.182 242.474 68.086 242.738 67.894C243.014 67.702 243.152 67.456 243.152 67.156C243.152 66.832 242.984 66.592 242.648 66.436C242.324 66.268 241.802 66.088 241.082 65.896C240.338 65.716 239.726 65.53 239.246 65.338C238.778 65.146 238.37 64.852 238.022 64.456C237.686 64.06 237.518 63.526 237.518 62.854C237.518 62.302 237.674 61.798 237.986 61.342C238.31 60.886 238.766 60.526 239.354 60.262C239.954 59.998 240.656 59.866 241.46 59.866C242.648 59.866 243.596 60.166 244.304 60.766C245.012 61.354 245.402 62.152 245.474 63.16H243.062C243.026 62.764 242.858 62.452 242.558 62.224C242.27 61.984 241.88 61.864 241.388 61.864C240.932 61.864 240.578 61.948 240.326 62.116C240.086 62.284 239.966 62.518 239.966 62.818C239.966 63.154 240.134 63.412 240.47 63.592C240.806 63.76 241.328 63.934 242.036 64.114C242.756 64.294 243.35 64.48 243.818 64.672C244.286 64.864 244.688 65.164 245.024 65.572C245.372 65.968 245.552 66.496 245.564 67.156C245.564 67.732 245.402 68.248 245.078 68.704C244.766 69.16 244.31 69.52 243.71 69.784C243.122 70.036 242.432 70.162 241.64 70.162ZM253.249 59.884C254.005 59.884 254.677 60.052 255.265 60.388C255.853 60.712 256.309 61.198 256.633 61.846C256.969 62.482 257.137 63.25 257.137 64.15V70H254.617V64.492C254.617 63.7 254.419 63.094 254.023 62.674C253.627 62.242 253.087 62.026 252.403 62.026C251.707 62.026 251.155 62.242 250.747 62.674C250.351 63.094 250.153 63.7 250.153 64.492V70H247.633V56.68H250.153V61.27C250.477 60.838 250.909 60.502 251.449 60.262C251.989 60.01 252.589 59.884 253.249 59.884ZM260.811 58.84C260.367 58.84 259.995 58.702 259.695 58.426C259.407 58.138 259.263 57.784 259.263 57.364C259.263 56.944 259.407 56.596 259.695 56.32C259.995 56.032 260.367 55.888 260.811 55.888C261.255 55.888 261.621 56.032 261.909 56.32C262.209 56.596 262.359 56.944 262.359 57.364C262.359 57.784 262.209 58.138 261.909 58.426C261.621 58.702 261.255 58.84 260.811 58.84ZM262.053 60.028V70H259.533V60.028H262.053ZM267.063 61.468C267.387 61.012 267.831 60.634 268.395 60.334C268.971 60.022 269.625 59.866 270.357 59.866C271.209 59.866 271.977 60.076 272.661 60.496C273.357 60.916 273.903 61.516 274.299 62.296C274.707 63.064 274.911 63.958 274.911 64.978C274.911 65.998 274.707 66.904 274.299 67.696C273.903 68.476 273.357 69.082 272.661 69.514C271.977 69.946 271.209 70.162 270.357 70.162C269.625 70.162 268.977 70.012 268.413 69.712C267.861 69.412 267.411 69.034 267.063 68.578V74.752H264.543V60.028H267.063V61.468ZM272.337 64.978C272.337 64.378 272.211 63.862 271.959 63.43C271.719 62.986 271.395 62.65 270.987 62.422C270.591 62.194 270.159 62.08 269.691 62.08C269.235 62.08 268.803 62.2 268.395 62.44C267.999 62.668 267.675 63.004 267.423 63.448C267.183 63.892 267.063 64.414 267.063 65.014C267.063 65.614 267.183 66.136 267.423 66.58C267.675 67.024 267.999 67.366 268.395 67.606C268.803 67.834 269.235 67.948 269.691 67.948C270.159 67.948 270.591 67.828 270.987 67.588C271.395 67.348 271.719 67.006 271.959 66.562C272.211 66.118 272.337 65.59 272.337 64.978Z" fill="#636363"/>
</svg>
